<?xml version="1.0" encoding="utf-8"?>
<!-- Generator: Adobe Illustrator 23.0.1, SVG Export Plug-In . SVG Version: 6.00 Build 0)  -->
<svg version="1.1" id="Calque_1" xmlns="http://www.w3.org/2000/svg" xmlns:xlink="http://www.w3.org/1999/xlink" x="0px" y="0px"
	 viewBox="0 0 66 82.5" style="enable-background:new 0 0 66 82.5;" xml:space="preserve">
<style type="text/css">
	.st0{fill:#0083B0;}
</style>
<g>
	<path class="st0" d="M58.6,1.9c-3.6,0-7.2,1.3-7.2,3.7c0,6.3,0,9.5,0,13.7L42,25.9v-2c0-2.8-3.3-4.7-8.4-4.7c-5.4,0-9.5,2-9.5,4.7
		v2l-9.4-6.6c0-0.1,0-0.1,0-0.2c0-4.9,0-8.5,0-13.9c0-1.7-1.7-3.7-6.4-3.7C4.6,1.5,1,2.8,1,5.2c0,5.3,0,8.9,0,13.9
		c0,2.4,3.6,3.7,7.2,3.7c2.9,0,4.6-0.7,5.5-1.7L24,28.3c0,0.3,0,10.7,0,10l-9.8,6.8c-0.7-1.2-2.5-2.3-6-2.3c-3.6,0-7.2,1.3-7.2,3.7
		c0,5.3,0,8.9,0,13.9c0,2.4,3.6,3.7,7.2,3.7c4.7,0,6.4-2,6.4-3.7c0-5.9,0-9.1,0-13.1l9.4-6.6v2c0,2.7,4.1,4.7,9.5,4.7
		c5.1,0,8.4-1.8,8.4-4.7v-2l9.4,6.6c0,5.1,0,8.5,0,13.4c0,2.4,3.6,3.7,7.2,3.7c4.7,0,6.4-2,6.4-3.7c0-4.9,0-8.5,0-13.9
		c0-1.7-1.7-3.7-6.4-3.7c-2.7,0-5.5,0.7-6.6,2.1l-10-7c0-3.7,0-6.5,0-10l10.2-7.1c1.3,1.3,3.9,1.9,6.5,1.9c4.7,0,6.4-2,6.4-3.7
		c0-4.9,0-8.5,0-13.9C65,3.9,63.3,1.9,58.6,1.9z M3,7.9C4.4,8.6,6.3,9,8.2,9c2,0,3.4-0.3,4.4-0.9v1.7c0,0.7-1.4,1.7-4.4,1.7
		C4.8,11.5,3,10.3,3,9.8V7.9z M3,12.4c1.4,0.7,3.3,1.1,5.2,1.1c2,0,3.4-0.3,4.4-0.9v1.8c0,0.7-1.4,1.7-4.4,1.7C4.8,16.2,3,15,3,14.5
		V12.4z M8.2,3.5c3,0,4.4,1,4.4,1.7s-1.4,1.7-4.4,1.7C4.8,6.9,3,5.7,3,5.2S4.8,3.5,8.2,3.5z M8.2,20.8c-3.4,0-5.2-1.2-5.2-1.7v-2
		c1.4,0.7,3.3,1.1,5.2,1.1c2,0,3.4-0.3,4.4-0.9v1.8C12.7,19.8,11.3,20.8,8.2,20.8z M3,49.2c1.4,0.7,3.3,1.1,5.2,1.1
		c2,0,3.4-0.3,4.4-0.9v1.7c0,0.7-1.4,1.7-4.4,1.7c-3.4,0-5.2-1.2-5.2-1.7C3,51.1,3,49.2,3,49.2z M3,53.7c1.4,0.7,3.3,1.1,5.2,1.1
		c2,0,3.4-0.3,4.4-0.9v1.8c0,0.7-1.4,1.7-4.4,1.7c-3.4,0-5.2-1.2-5.2-1.7C3,55.7,3,53.7,3,53.7z M8.2,44.8c3,0,4.4,1,4.4,1.7
		s-1.4,1.7-4.4,1.7C4.8,48.2,3,47,3,46.5S4.8,44.8,8.2,44.8z M8.2,62.1c-3.4,0-5.2-1.2-5.2-1.7v-2c1.4,0.7,3.3,1.1,5.2,1.1
		c2,0,3.4-0.3,4.4-0.9v1.8C12.7,61.1,11.3,62.1,8.2,62.1z M53.3,54.1c1.4,0.7,3.3,1.1,5.2,1.1c2,0,3.4-0.3,4.4-0.9v1.8
		c0,0.7-1.4,1.7-4.4,1.7c-3.4,0-5.2-1.2-5.2-1.7V54.1z M63,51.5c0,0.7-1.4,1.7-4.4,1.7c-3.4,0-5.2-1.2-5.2-1.7v-1.9
		c1.4,0.7,3.3,1.1,5.2,1.1c2,0,3.4-0.3,4.4-0.9V51.5z M58.6,62.5c-3.4,0-5.2-1.2-5.2-1.7v-2c1.4,0.7,3.3,1.1,5.2,1.1
		c2,0,3.4-0.3,4.4-0.9v1.8C63,61.5,61.6,62.5,58.6,62.5z M58.6,45.2c3,0,4.4,1,4.4,1.7s-1.4,1.7-4.4,1.7c-3.4,0-5.2-1.2-5.2-1.7
		C53.3,46.4,55.2,45.2,58.6,45.2z M39.9,30.1c0,1.3-2.2,2.7-6.4,2.7c-4.6,0-7.5-1.6-7.5-2.7v-3.3c1.7,1.1,4.4,1.7,7.5,1.7
		c2.7,0,4.9-0.5,6.4-1.4V30.1z M26.1,36.4V33c1.7,1.1,4.4,1.7,7.5,1.7c2.7,0,4.9-0.5,6.4-1.4v3.1c0,1.3-2.2,2.7-6.4,2.7
		C29,39.1,26.1,37.5,26.1,36.4z M33.6,21.2c4.2,0,6.4,1.3,6.4,2.7c0,1.3-2.2,2.7-6.4,2.7c-4.6,0-7.5-1.6-7.5-2.7
		C26.1,22.8,29,21.2,33.6,21.2z M33.6,45.4c-4.6,0-7.5-1.6-7.5-2.7v-3.4l0,0c1.7,1.1,4.4,1.7,7.5,1.7c2.7,0,4.9-0.5,6.4-1.4v3.1
		C39.9,44.1,37.8,45.4,33.6,45.4z M53.3,12.8c1.4,0.7,3.3,1.1,5.2,1.1c2,0,3.4-0.3,4.4-0.9v1.8c0,0.7-1.4,1.7-4.4,1.7
		c-3.4,0-5.2-1.2-5.2-1.7V12.8z M63,10.1c0,0.7-1.4,1.7-4.4,1.7c-3.4,0-5.2-1.2-5.2-1.7V8.2c1.4,0.7,3.3,1.1,5.2,1.1
		c2,0,3.4-0.3,4.4-0.9V10.1z M58.6,3.9c3,0,4.4,1,4.4,1.7s-1.4,1.7-4.4,1.7c-3.4,0-5.2-1.2-5.2-1.7S55.2,3.9,58.6,3.9z M58.6,21.1
		c-3.4,0-5.2-1.2-5.2-1.7v-2c1.4,0.7,3.3,1.1,5.2,1.1c2,0,3.4-0.3,4.4-0.9v1.8C63,20.1,61.6,21.1,58.6,21.1z"/>
</g>
</svg>
