<?xml version="1.0"?>
<svg xmlns="http://www.w3.org/2000/svg" xmlns:xlink="http://www.w3.org/1999/xlink" version="1.1" id="Capa_1" x="0px" y="0px" width="512px" height="512px" viewBox="0 0 554.625 554.625" style="enable-background:new 0 0 554.625 554.625;" xml:space="preserve" class=""><g><g>
	<g>
		<path d="M267.75,153h95.625L248.625,19.125v114.75C248.625,145.35,258.188,153,267.75,153z" data-original="#000000" class="active-path" data-old_color="#0083b0" fill="#0083b0"/>
		<path d="M133.875,401.625V267.75c0-32.513,24.862-57.375,57.375-57.375h172.125v-38.25H267.75c-21.038,0-38.25-17.212-38.25-38.25    V19.125H38.25C17.212,19.125,0,36.337,0,57.375V497.25c0,21.037,17.212,38.25,38.25,38.25h286.875    c21.037,0,38.25-17.213,38.25-38.25V459H191.25C158.737,459,133.875,434.138,133.875,401.625z" data-original="#000000" class="active-path" data-old_color="#0083b0" fill="#0083b0"/>
		<path d="M516.375,229.5H191.25c-21.038,0-38.25,17.212-38.25,38.25v133.875c0,21.037,17.212,38.25,38.25,38.25h325.125    c21.037,0,38.25-17.213,38.25-38.25V267.75C554.625,246.712,537.412,229.5,516.375,229.5z M229.5,382.5h19.125    c11.475,0,19.125-7.65,19.125-19.125h19.125c0,21.037-17.213,38.25-38.25,38.25H229.5c-21.038,0-38.25-17.213-38.25-38.25V306    c0-21.037,17.212-38.25,38.25-38.25h19.125c21.037,0,38.25,17.213,38.25,38.25H267.75c0-11.475-7.65-19.125-19.125-19.125H229.5    c-11.475,0-19.125,7.65-19.125,19.125v57.375C210.375,374.85,218.025,382.5,229.5,382.5z M344.25,325.125h19.125    c21.037,0,38.25,17.213,38.25,38.25s-17.213,38.25-38.25,38.25H344.25c-21.037,0-38.25-17.213-38.25-38.25l0,0h19.125l0,0    c0,9.562,7.65,19.125,19.125,19.125h19.125c11.475,0,19.125-7.65,19.125-19.125s-9.562-19.125-19.125-19.125H344.25    c-21.037,0-38.25-17.213-38.25-38.25s17.213-38.25,38.25-38.25h19.125c21.037,0,38.25,17.213,38.25,38.25H382.5    c0-9.562-7.65-19.125-19.125-19.125H344.25c-11.475,0-19.125,7.65-19.125,19.125S334.688,325.125,344.25,325.125z M459,325.125    h19.125c21.037,0,38.25,17.213,38.25,38.25s-17.213,38.25-38.25,38.25H459c-21.037,0-38.25-17.213-38.25-38.25l0,0h19.125l0,0    c0,9.562,7.65,19.125,19.125,19.125h19.125c11.475,0,19.125-7.65,19.125-19.125s-9.562-19.125-19.125-19.125H459    c-21.037,0-38.25-17.213-38.25-38.25s17.213-38.25,38.25-38.25h19.125c21.037,0,38.25,17.213,38.25,38.25H497.25    c0-9.562-7.65-19.125-19.125-19.125H459c-11.475,0-19.125,7.65-19.125,19.125S449.438,325.125,459,325.125z" data-original="#000000" class="active-path" data-old_color="#0083b0" fill="#0083b0"/>
	</g>
</g></g> </svg>
