<?xml version="1.0" encoding="utf-8"?>
<!-- Generator: Adobe Illustrator 23.0.1, SVG Export Plug-In . SVG Version: 6.00 Build 0)  -->
<svg version="1.1" id="Calque_1" xmlns="http://www.w3.org/2000/svg" xmlns:xlink="http://www.w3.org/1999/xlink" x="0px" y="0px"
	 viewBox="0 0 100 125" style="enable-background:new 0 0 100 125;" xml:space="preserve">
<style type="text/css">
	.st0{fill:#9397FF;}
	.st1{fill:#0083B0;}
</style>
<g>
	<g>
		<path class="st0" d="M5273.1,2400.1v-2c0-2.8-5-4-9.7-4s-9.7,1.3-9.7,4v2c0,1.8,0.7,3.6,2,4.9l5,4.9c0.3,0.3,0.4,0.6,0.4,1v6.4
			c0,0.4,0.2,0.7,0.6,0.8l2.9,0.9c0.5,0.1,1-0.2,1-0.8v-7.2c0-0.4,0.2-0.7,0.4-1l5.1-5C5272.4,2403.7,5273.1,2401.9,5273.1,2400.1z
			 M5263.4,2400c-4.8,0-7.4-1.3-7.5-1.8l0,0c0.1-0.5,2.7-1.8,7.5-1.8s7.3,1.3,7.5,1.8C5270.7,2398.7,5268.2,2400,5263.4,2400z"/>
		<path class="st0" d="M5268.4,2410.3c-0.6,0-1,0.4-1,1s0.4,1,1,1h4.3c0.6,0,1-0.4,1-1s-0.4-1-1-1H5268.4z"/>
		<path class="st0" d="M5272.7,2413.7h-4.3c-0.6,0-1,0.4-1,1s0.4,1,1,1h4.3c0.6,0,1-0.4,1-1
			C5273.7,2414.1,5273.3,2413.7,5272.7,2413.7z"/>
		<path class="st0" d="M5272.7,2417h-4.3c-0.6,0-1,0.4-1,1s0.4,1,1,1h4.3c0.6,0,1-0.4,1-1C5273.7,2417.5,5273.3,2417,5272.7,2417z"
			/>
	</g>
	<g>
		<path class="st1" d="M38.5,52.3c-0.9-0.8-2.2-0.8-3,0.1l-9,9.6c-0.8,0.8-0.8,2.1,0,2.9l8.9,9.7c0.4,0.5,1,0.7,1.6,0.7
			c0.5,0,1.1-0.2,1.5-0.6c0.9-0.8,0.9-2.2,0.1-3.1L31,63.4l7.6-8.2C39.5,54.5,39.4,53.1,38.5,52.3z"/>
		<path class="st1" d="M64.5,52.4c-0.8-0.9-2.2-0.9-3-0.1c-0.9,0.8-0.9,2.2-0.1,3.1l7.6,8.2l-7.6,8.2c-0.8,0.9-0.8,2.2,0.1,3.1
			c0.4,0.4,0.9,0.6,1.5,0.6s1.2-0.2,1.6-0.7l8.9-9.7c0.8-0.8,0.8-2.1,0-2.9L64.5,52.4z"/>
		<path class="st1" d="M53,48.4c-1.2-0.2-2.3,0.5-2.5,1.7l-5.2,27.2c-0.2,1.2,0.5,2.3,1.7,2.5c0.1,0,0.3,0,0.4,0
			c1,0,1.9-0.7,2.1-1.8l5.2-27.2C54.9,49.8,54.2,48.6,53,48.4z"/>
		<path class="st1" d="M85.8,26.6L63.9,4.7c-1.4-1.4-3.3-2.2-5.2-2.2H19.4l0,0c-2,0-3.8,0.8-5.2,2.2S12,7.9,12,9.9v80.2
			c0,4.1,3.3,7.4,7.4,7.4h61.2c4.1,0,7.4-3.3,7.4-7.4V31.8C88,29.9,87.2,28,85.8,26.6z M81.6,28.4H65.4c-1.8,0-3.3-1.5-3.3-3.3V9
			L81.6,28.4z M80.6,93.2H19.4c-1.7,0-3.1-1.4-3.1-3.1V9.9c0-0.8,0.3-1.6,0.9-2.2s1.4-0.9,2.2-0.9l0,0h38.4v18.3
			c0,4.2,3.4,7.6,7.6,7.6h18.3v57.4C83.7,91.8,82.3,93.2,80.6,93.2z"/>
	</g>
</g>
</svg>
