<?xml version="1.0" encoding="utf-8"?>
<!-- Generator: Adobe Illustrator 23.0.1, SVG Export Plug-In . SVG Version: 6.00 Build 0)  -->
<svg version="1.1" id="Calque_1" xmlns="http://www.w3.org/2000/svg" xmlns:xlink="http://www.w3.org/1999/xlink" x="0px" y="0px"
	 viewBox="0 0 32 40" style="enable-background:new 0 0 32 40;" xml:space="preserve">
<style type="text/css">
	.st0{display:none;}
	.st1{display:inline;}
	.st2{opacity:0.35;enable-background:new    ;}
	.st3{font-family:'EurostileLTStd';}
	.st4{font-size:5.7px;}
	.st5{fill:none;stroke:#21935A;stroke-miterlimit:10;}
	.st6{font-family:'Arial-BoldMT';}
	.st7{font-size:7px;}
	.st8{fill:#0083B0;}
	.st9{fill:none;stroke:#000000;stroke-width:2;stroke-miterlimit:10;}
	.st10{fill:none;stroke:#000000;stroke-width:0.5;stroke-miterlimit:10;}
	.st11{fill:none;stroke:#E04F5F;stroke-miterlimit:10;}
	.st12{font-size:5.0837px;}
	.st13{fill:none;stroke:#666666;stroke-miterlimit:10;}
	.st14{font-size:4.9001px;}
</style>
<g class="st0">
	<rect x="-168" y="-132.3" class="st1" width="404.7" height="211.3"/>
</g>
<g class="st0">
	<g class="st1">
		<g>
			<polygon points="22.4,0.4 29,6.9 29,31.6 5.4,31.6 5.4,0.4 			"/>
		</g>
		<polygon points="29.2,7.1 22.1,7.1 22.1,0 		"/>
		<g>
			<path d="M22.1,1l6.1,6.1V31H6.1V1H22.1 M22.6,0H5.1v32h24.2V6.7L22.6,0L22.6,0z"/>
		</g>
		<polygon points="24.2,26.4 2.8,26.4 2.8,18.3 27.1,18.3 		"/>
		<polygon class="st2" points="2.8,23.2 2.8,18.3 7.6,18.3 		"/>
	</g>
	<g class="st1">
		<text transform="matrix(1 0 0 1 11.2685 24.2792)" class="st3 st4">JS</text>
	</g>
</g>
<g class="st0">
	<g class="st1">
		<g>
			<path d="M26.5,1c0.6,0,1,0.4,1,1v28c0,0.6-0.4,1-1,1h-21c-0.6,0-1-0.4-1-1V2c0-0.6,0.4-1,1-1H26.5 M26.5,0h-21c-1.1,0-2,0.9-2,2
				v28c0,1.1,0.9,2,2,2h21c1.1,0,2-0.9,2-2V2C28.5,0.9,27.6,0,26.5,0L26.5,0z"/>
		</g>
		<g>
			<g>
				<line class="st5" x1="8.5" y1="25" x2="23.5" y2="25"/>
			</g>
		</g>
		<g>
			<g>
				<line class="st5" x1="8.5" y1="21.5" x2="23.5" y2="21.5"/>
			</g>
		</g>
	</g>
	<g class="st1">
		<text transform="matrix(1 0 0 1 11.719 13.4549)" class="st6 st7">JS</text>
	</g>
</g>
<g>
	<g>
		<path class="st8" d="M26.3,3.1h-21c-1.1,0-2,0.9-2,2v28c0,1.1,0.9,2,2,2h21c1.1,0,2-0.9,2-2v-28C28.3,4,27.4,3.1,26.3,3.1z
			 M27.3,33.1c0,0.6-0.4,1-1,1h-21c-0.6,0-1-0.4-1-1v-28c0-0.6,0.4-1,1-1h21c0.6,0,1,0.4,1,1V33.1z"/>
		<rect x="8.4" y="27.6" class="st8" width="15" height="1"/>
		<rect x="8.4" y="24.1" class="st8" width="15" height="1"/>
		<path class="st8" d="M13.2,16.6c0.4,0,0.8-0.1,1-0.3c0.3-0.2,0.4-0.4,0.5-0.7c0.1-0.2,0.1-0.5,0.1-1v-3.2h-1v3.2
			c0,0.4,0,0.7-0.1,0.8s-0.3,0.2-0.5,0.2s-0.4-0.1-0.5-0.3c-0.1-0.1-0.1-0.3-0.1-0.6l-1,0.1c0,0.5,0.1,0.9,0.4,1.2
			C12.4,16.5,12.7,16.6,13.2,16.6z"/>
		<path class="st8" d="M17.8,15.8c-0.3,0-0.6-0.1-0.7-0.2c-0.2-0.2-0.3-0.4-0.4-0.7l-1,0.1c0.1,0.6,0.3,1,0.6,1.3
			c0.3,0.3,0.8,0.4,1.5,0.4c0.4,0,0.8-0.1,1.1-0.2c0.3-0.1,0.5-0.3,0.7-0.6c0.2-0.3,0.2-0.5,0.2-0.8s-0.1-0.6-0.2-0.8
			s-0.3-0.4-0.6-0.5c-0.2-0.1-0.6-0.2-1.1-0.4c-0.5-0.1-0.8-0.2-0.9-0.3s-0.1-0.2-0.1-0.3s0.1-0.2,0.2-0.3c0.2-0.1,0.4-0.2,0.7-0.2
			c0.3,0,0.5,0.1,0.6,0.2c0.1,0.1,0.2,0.3,0.3,0.6h1c0-0.5-0.2-0.8-0.5-1.1s-0.8-0.4-1.4-0.4c-0.4,0-0.7,0.1-1,0.2
			c-0.3,0.1-0.5,0.3-0.6,0.5S16,12.8,16,13c0,0.4,0.2,0.7,0.5,1c0.2,0.2,0.6,0.4,1.1,0.5c0.4,0.1,0.7,0.2,0.8,0.2
			c0.2,0.1,0.3,0.1,0.4,0.2c0.1,0.1,0.1,0.2,0.1,0.3c0,0.2-0.1,0.3-0.2,0.5C18.4,15.7,18.1,15.8,17.8,15.8z"/>
	</g>
</g>
<g class="st0">
	<g class="st1">
		<path d="M26.5,0h-21c-1.1,0-2,0.9-2,2v28c0,1.1,0.9,2,2,2h21c1.1,0,2-0.9,2-2V2C28.5,0.9,27.6,0,26.5,0z M18.8,11.2
			c-0.1-0.1-0.2-0.2-0.4-0.2c-0.1,0-0.4-0.1-0.8-0.2c-0.5-0.1-0.9-0.3-1.1-0.5C16.2,10,16,9.7,16,9.3c0-0.3,0.1-0.5,0.2-0.7
			s0.4-0.4,0.6-0.5c0.3-0.1,0.6-0.2,1-0.2c0.6,0,1.1,0.1,1.4,0.4c0.3,0.3,0.5,0.6,0.5,1.1h-1c0-0.3-0.1-0.4-0.3-0.6
			c-0.1-0.1-0.4-0.2-0.6-0.2c-0.3,0-0.5,0.1-0.7,0.2C17.1,9,17,9.1,17,9.2c0,0.1,0.1,0.2,0.1,0.3c0.1,0.1,0.4,0.2,0.9,0.3
			s0.9,0.2,1.1,0.4s0.4,0.3,0.6,0.5c0.1,0.2,0.2,0.5,0.2,0.8s-0.1,0.6-0.2,0.8c-0.2,0.2-0.4,0.4-0.7,0.6c-0.3,0.1-0.7,0.2-1.1,0.2
			c-0.6,0-1.1-0.1-1.5-0.4c-0.3-0.3-0.5-0.7-0.6-1.3l1-0.1c0.1,0.3,0.2,0.6,0.4,0.7c0.2,0.2,0.4,0.2,0.7,0.2c0.3,0,0.6-0.1,0.7-0.2
			c0.2-0.1,0.2-0.3,0.2-0.5C18.9,11.4,18.9,11.3,18.8,11.2z M12.8,11.3c0,0.3,0.1,0.5,0.1,0.6c0.1,0.2,0.3,0.3,0.5,0.3
			s0.4-0.1,0.5-0.2c0.1-0.1,0.1-0.4,0.1-0.8V8h1v3.2c0,0.4,0,0.7-0.1,1s-0.3,0.5-0.5,0.7c-0.3,0.2-0.6,0.3-1,0.3
			c-0.5,0-0.9-0.1-1.1-0.4c-0.3-0.3-0.4-0.7-0.4-1.2L12.8,11.3z M23.5,25.5h-15v-1h15V25.5z M23.5,22h-15v-1h15V22z"/>
	</g>
</g>
<g class="st0">
	<g class="st1">
		<g>
			<path d="M26.5,2v28h-21V2H26.5 M26.5,0h-21c-1.1,0-2,0.9-2,2v28c0,1.1,0.9,2,2,2h21c1.1,0,2-0.9,2-2V2C28.5,0.9,27.6,0,26.5,0
				L26.5,0z"/>
		</g>
		<g>
			<g>
				<line class="st9" x1="8.5" y1="25" x2="23.5" y2="25"/>
			</g>
		</g>
		<g>
			<g>
				<line class="st9" x1="8.5" y1="21.5" x2="23.5" y2="21.5"/>
			</g>
		</g>
	</g>
	<g class="st1">
		<text transform="matrix(1 0 0 1 11.719 13.4549)" class="st6 st7">JS</text>
	</g>
</g>
<g class="st0">
	<g class="st1">
		<g>
			<path d="M26.5,0.5C27.3,0.5,28,1.2,28,2v28c0,0.8-0.7,1.5-1.5,1.5h-21C4.7,31.5,4,30.8,4,30V2c0-0.8,0.7-1.5,1.5-1.5H26.5
				 M26.5,0h-21c-1.1,0-2,0.9-2,2v28c0,1.1,0.9,2,2,2h21c1.1,0,2-0.9,2-2V2C28.5,0.9,27.6,0,26.5,0L26.5,0z"/>
		</g>
		<g>
			<g>
				<line class="st10" x1="8.5" y1="25" x2="23.5" y2="25"/>
			</g>
		</g>
		<g>
			<g>
				<line class="st10" x1="8.5" y1="21.5" x2="23.5" y2="21.5"/>
			</g>
		</g>
	</g>
	<g class="st1">
		<text transform="matrix(1 0 0 1 11.719 13.4549)" class="st6 st7">JS</text>
	</g>
</g>
<g class="st0">
	<g class="st1">
		<circle cx="16" cy="16" r="16"/>
		<g>
			<g>
				<path d="M8.4,27.1c-0.5,0-1-0.4-1-1V5.8c0-0.5,0.4-1,1-1h15.3c0.5,0,1,0.4,1,1v20.3c0,0.5-0.4,1-1,1
					C23.6,27.1,8.4,27.1,8.4,27.1z"/>
				<g>
					<path d="M23.6,5.4c0.2,0,0.5,0.2,0.5,0.5v20.3c0,0.2-0.2,0.5-0.5,0.5H8.4c-0.2,0-0.5-0.2-0.5-0.5V5.8c0-0.2,0.2-0.5,0.5-0.5
						L23.6,5.4 M23.6,4.4H8.4C7.6,4.4,6.9,5,6.9,5.8v20.3c0,0.8,0.7,1.5,1.5,1.5h15.3c0.8,0,1.5-0.7,1.5-1.5V5.8
						C25.1,5,24.4,4.4,23.6,4.4L23.6,4.4z"/>
				</g>
			</g>
			<g>
				<g>
					<line class="st11" x1="10.6" y1="22.6" x2="21.4" y2="22.6"/>
				</g>
			</g>
			<g>
				<g>
					<line class="st11" x1="10.6" y1="20" x2="21.4" y2="20"/>
				</g>
			</g>
		</g>
	</g>
	<g class="st1">
		<g>
			<g>
				<text transform="matrix(1 0 0 1 12.8904 14.1511)" class="st6 st12">JS</text>
			</g>
		</g>
	</g>
</g>
<g class="st0">
	<circle class="st1" cx="16" cy="16" r="16"/>
	<g class="st1">
		<g>
			<g>
				<path d="M23.4,27.2H8.6c-0.8,0-1.4-0.6-1.4-1.4V6.2c0-0.8,0.6-1.4,1.4-1.4h14.7c0.8,0,1.4,0.6,1.4,1.4v19.6
					C24.8,26.6,24.1,27.2,23.4,27.2z"/>
			</g>
			<g>
				<g>
					<line class="st13" x1="10.8" y1="22.3" x2="21.2" y2="22.3"/>
				</g>
			</g>
			<g>
				<g>
					<line class="st13" x1="10.8" y1="19.8" x2="21.2" y2="19.8"/>
				</g>
			</g>
		</g>
		<g>
			<text transform="matrix(1 0 0 1 13.0025 14.2179)" class="st6 st14">JS</text>
		</g>
	</g>
</g>
</svg>
